@startuml Co-working Class Diagram
left to right direction
package "Co working Space"{
    class "<<Application>>\nCo-working Space" as CoWorkingService{}

    class "<<Resource>>\nReservations" as ResourceReservations{
        <<GET>> +getReservations():Reservation
        <<POST>> +createReservation():Reservation
    }

    class "<<Resource>>\nReservation" as ResourceReservation {
        <<GET>> +getReservationById(): Reservation
        <<PUT>> +updateReservation(): Reservation
        <<DELETE>> +deleteReservation(): void
    }

    class "<<Representation>>\nReservation" as RepresentationReservation {
        -name
        -coWorkingSpace
        -date
        -startTime
        -endTime
        -telephone
        -region
    }

    class "<<Resource>>\nFeedBacks" as ResourceFeedBacks{
        <<GET>> +getReservations():FeedBack
        <<POST>> +createReservation():FeedBack
    }

    class "<<Resource>>\nFeedBack" as ResourceFeedBack {
        <<GET>> +getReservationById(): FeedBack
        <<PUT>> +updateReservation(): FeedBack
        <<DELETE>> +deleteReservation(): void
    }

    class "<<Representation>>\nFeedBack" as RepresentationFeedBack {
        -coWorkingSpace
        -user
        -feedbackString
        -rating
        -createdAt
    }

    class "<<Resource>>\nAuth" as ResourceAuth {
        <<POST>> +register(): User
        <<POST>> +login(): User
        <<GET>> +getMe(): User
        <<GET>> +logout(): void
    }

    class "<<Representation>>\nFeedBack" as RepresentationAuth {
        -name
        -email
        -phone
        -role
        -password
    }

}

CoWorkingService ..> ResourceReservations:"/reservations\n<<Path>>"
ResourceReservations ..> ResourceReservation: "/{reservationId}\n<<Path>>"
ResourceReservation ..> RepresentationReservation: "<<use>>"

CoWorkingService ..> ResourceFeedBacks:"/feedbacks\n<<Path>>"
ResourceFeedBacks ..> ResourceFeedBack: "/{feedbackId}\n<<Path>>"
ResourceFeedBack ..> RepresentationFeedBack: "<<use>>"

CoWorkingService ..> ResourceAuth:"/login\n<<Path>>"
CoWorkingService ..> ResourceAuth:"/logout\n<<Path>>"
CoWorkingService ..> ResourceAuth:"/register\n<<Path>>"
CoWorkingService ..> ResourceAuth:"/me\n<<Path>>"
ResourceAuth ..> RepresentationAuth: "<<use>>"

@enduml